# xmcd CD database file
#
# Track frame offsets:
#	150
#	27793
#	55557
#	78138
#	101117
#	125622
#	161932
#	181371
#	202486
#	226196
#	250989
#
# Disc length: 3656 seconds
#
# Revision: 0
# Processed by: cddbd v1.5.2PL0 Copyright (c) Steve Scherf et al.
# Submitted via: CDex 1.84
#
DISCID=920e460b
DTITLE=Wolfgang Haffner -  Round Silence
DYEAR=2004
DGENRE=Jazz
TTITLE0=Wolfgang Haffner - Round Silence 
TTITLE1=Wolfgang Haffner - One
TTITLE2=Wolfgang Haffner - It's not safe
TTITLE3=Wolfgang Haffner - AZUL
TTITLE4=Wolfgang Haffner - Stadium Jazz
TTITLE5=Wolfgang Haffner - Night Song
TTITLE6=Wolfgang Haffner - The space in between 
TTITLE7=Wolfgang Haffner - Tubes
TTITLE8=Wolfgang Haffner - Ride
TTITLE9=Wolfgang Haffner - Wordless
TTITLE10=Wolfgang Haffner - The Flow
EXTD=YEAR: 2004
EXTT0=
EXTT1=
EXTT2=
EXTT3=
EXTT4=
EXTT5=
EXTT6=
EXTT7=
EXTT8=
EXTT9=
EXTT10=
PLAYORDER=
